<svg width="100" height="100" viewBox="0 0 100 100" fill="none" xmlns="http://www.w3.org/2000/svg">
<path d="M50 0C22.45 0 0 22.45 0 50C0 77.55 22.45 100 50 100C77.55 100 100 77.55 100 50C100 22.45 77.55 0 50 0ZM78.3 21.75C74.7 22.6 71.05 23.25 67.35 23.75C66.45 19.6 65.25 15.8 63.85 12.5C69.2755 14.509 74.2041 17.664 78.3 21.75ZM50 90C48.45 90 45.15 85 42.75 75.3C47.55 75.05 52.4 75.05 57.25 75.3C54.85 85 51.55 90 50 90ZM40.95 65.35C40.55 62.2 40.25 58.75 40.1 55H59.9C59.75 58.75 59.45 62.2 59.05 65.35C53.05 64.95 46.95 64.95 40.95 65.35ZM50 10C51.55 10 54.85 15 57.25 24.7C52.45 24.95 47.6 24.95 42.75 24.7C45.15 15 48.45 10 50 10ZM50 35C53.05 35 56.05 34.85 59.05 34.7C59.45 37.85 59.75 41.3 59.9 45H40.1C40.25 41.25 40.55 37.85 40.95 34.7C43.95 34.9 46.95 35 50 35ZM30.1 45H10.35C11 39.75 12.7 34.8 15.2 30.4C20.35 31.8 25.65 32.95 31 33.7C30.55 37.4 30.25 41.2 30.1 45.05V45ZM30.1 55C30.25 58.85 30.55 62.65 31 66.35C25.6 67.1 20.35 68.25 15.2 69.6C12.7 65.2 11 60.25 10.35 54.95H30.1V55ZM69.9 55H89.65C88.9996 60.1519 87.3523 65.1278 84.8 69.65C79.65 68.25 74.35 67.15 69 66.4C69.45 62.7 69.75 58.85 69.9 55.05V55ZM69.9 45C69.75 41.2 69.45 37.35 69 33.65C74.4 32.9 79.65 31.75 84.8 30.35C87.3 34.75 88.95 39.7 89.65 44.95H69.9V45ZM36.2 12.5C34.8 15.8 33.6 19.65 32.7 23.75C29 23.25 25.35 22.55 21.75 21.75C25.8 17.7 30.75 14.55 36.2 12.5ZM21.75 78.25C25.35 77.4 29 76.75 32.7 76.25C33.6 80.4 34.8 84.2 36.2 87.5C30.7745 85.491 25.8459 82.336 21.75 78.25ZM63.85 87.5C65.25 84.2 66.45 80.35 67.35 76.25C71.05 76.75 74.7 77.45 78.3 78.25C74.25 82.3 69.3 85.45 63.85 87.5Z" fill="black"/>
</svg>
