<svg width="896" height="100" viewBox="0 0 896 100" fill="none" xmlns="http://www.w3.org/2000/svg">
<path d="M775.647 99.0968V71.8405H802.831V28.5192H775.647V1.44336H732.334V28.5192H704.969V71.8405H732.334V99.0968H775.647Z" fill="#4088BD"/>
<path d="M787.424 94.0441C787.424 91.156 789.961 88.6289 792.861 88.6289C795.76 88.6289 798.297 91.156 798.297 94.0441C798.297 96.9322 795.941 99.4592 792.861 99.4592C789.78 99.4592 787.424 97.1127 787.424 94.0441ZM797.391 94.0441C797.391 91.3365 795.398 89.5314 792.861 89.5314C790.323 89.5314 788.33 91.517 788.33 94.0441C788.33 96.5711 790.323 98.5567 792.861 98.5567C795.398 98.5567 797.391 96.5711 797.391 94.0441ZM791.592 97.1127H790.686V90.9755H793.404C795.035 90.9755 795.579 91.517 795.579 92.7805C795.579 94.0441 794.673 94.4051 793.585 94.5856L795.398 97.2932H794.492L792.679 94.5856H791.411V97.2932L791.592 97.1127ZM792.679 93.6831C793.585 93.6831 794.854 93.6831 794.854 92.6C794.854 91.517 794.129 91.6975 793.404 91.6975H791.773V93.6831H792.861H792.679Z" fill="#4088BD"/>
<path d="M880.936 94.0441C880.936 91.156 883.291 88.6289 886.372 88.6289C889.453 88.6289 891.809 91.156 891.809 94.0441C891.809 96.9322 889.453 99.4592 886.372 99.4592C883.291 99.4592 880.936 97.1127 880.936 94.0441ZM890.903 94.0441C890.903 91.3365 888.909 89.5314 886.372 89.5314C883.835 89.5314 881.842 91.517 881.842 94.0441C881.842 96.5711 883.835 98.5567 886.372 98.5567C888.909 98.5567 890.903 96.5711 890.903 94.0441ZM885.104 97.1127H884.379V90.9755H887.097C888.728 90.9755 889.272 91.517 889.272 92.7805C889.272 94.0441 888.366 94.4051 887.278 94.5856L889.091 97.2932H888.185L886.372 94.5856H885.104V97.2932V97.1127ZM886.191 93.6831C887.097 93.6831 888.185 93.6831 888.185 92.6C888.185 91.517 887.46 91.6975 886.735 91.6975H885.104V93.6831H886.191Z" fill="#4088BD"/>
<path d="M855.203 100C874.05 89.7112 885.467 73.1047 891.267 55.0541C897.428 36.2816 896.16 13.8989 889.092 0C878.4 5.41516 867.707 8.30325 855.203 8.30325C842.698 8.30325 831.825 5.23466 821.132 0C814.064 13.8989 812.977 36.2816 819.139 55.0541C824.938 73.1047 836.355 89.5307 855.203 100Z" fill="#4088BD"/>
<path d="M754.081 23.4648C743.207 23.4648 733.965 29.7825 729.615 38.9883H748.825C751.544 38.9883 752.812 37.3638 752.812 36.1002C752.812 34.4757 752.631 34.1147 751.362 32.4901C749.912 30.6851 751 27.075 754.081 27.075C757.162 27.075 758.249 30.6851 756.799 32.4901C755.53 34.1147 755.349 34.6562 755.349 36.1002C755.349 37.3638 756.618 38.9883 759.336 38.9883H778.546C774.197 29.7825 764.954 23.4648 754.262 23.4648M748.463 35.3782H736.321C739.22 31.9486 743.026 29.4215 747.557 28.158C746.107 30.5046 747.375 33.3926 748.644 34.8367C748.825 35.0172 748.644 35.3782 748.644 35.3782M759.517 35.3782C759.336 35.3782 759.155 35.0172 759.517 34.8367C760.786 33.3926 761.873 30.5046 760.605 28.158C764.954 29.4215 768.941 31.9486 771.841 35.3782H759.699H759.517Z" fill="white"/>
<path d="M746.832 42.598L728.89 40.793C727.803 43.6811 727.078 46.9302 727.078 50.1793C727.078 58.663 731.065 66.4247 737.408 71.2984L749.731 48.1937C750.637 46.2081 750.275 42.959 746.832 42.598ZM745.926 47.1107L736.321 65.3417C732.877 61.1901 730.703 56.1359 730.703 50.3598C730.703 44.5836 730.884 46.5691 731.428 44.9446L745.019 46.2081C745.926 46.2081 746.107 46.7496 745.926 47.2912" fill="white"/>
<path d="M780.902 50.3609C780.902 47.1118 780.358 43.8627 779.271 40.9746L761.148 42.7797C757.705 43.1407 757.342 46.5703 758.248 48.3753L770.572 71.48C776.915 66.6064 780.902 58.8446 780.902 50.3609ZM762.054 47.1118C761.873 46.5703 762.054 46.2093 762.96 46.0288L776.552 44.7652C776.915 46.5703 777.277 48.3753 777.277 50.1804C777.277 55.9566 775.102 61.1912 771.659 65.1623L762.054 46.9313V47.1118Z" fill="white"/>
<path d="M752.269 53.2489L739.221 72.7435C743.389 75.6316 748.463 77.0756 754.081 77.0756C759.699 77.0756 764.592 75.4511 768.761 72.7435L755.712 53.2489C754.806 51.9854 753.356 51.8048 752.45 53.2489M754.081 73.285C750.638 73.285 747.557 72.563 744.657 71.2994L753.719 57.581C753.719 57.581 753.9 57.4005 754.081 57.4005C754.081 57.4005 754.262 57.4005 754.444 57.581L763.505 71.2994C760.605 72.563 757.525 73.285 754.081 73.285Z" fill="white"/>
<path d="M884.742 10.6504C876.949 13.358 872.419 14.08 868.25 14.802C864.263 15.3435 860.82 15.7045 855.021 15.8851C849.222 15.8851 845.778 15.524 841.973 14.802C837.805 14.08 833.274 13.358 825.481 10.6504C820.407 23.1053 821.494 39.1702 826.206 52.8887C831.462 68.4121 839.617 81.95 855.202 91.5168C870.606 81.95 878.943 68.2316 884.198 52.8887C888.91 39.1702 889.998 23.1053 884.923 10.6504M882.205 46.932C877.493 66.4266 865.713 81.4085 855.202 87.9067C844.691 81.4085 832.911 66.4266 828.2 46.932C825.662 36.4627 824.937 24.9103 828.2 15.7045C832.911 16.9681 837.261 17.8706 841.791 18.5926C846.322 19.1341 850.853 19.6757 855.202 19.6757C859.552 19.6757 864.082 19.1341 868.613 18.5926C873.144 17.8706 877.493 16.9681 882.205 15.7045C885.467 24.9103 884.742 36.6432 882.205 46.932Z" fill="white"/>
<path d="M852.123 75.0903C851.76 75.4513 850.854 76.3539 851.035 78.3394C851.035 79.603 851.398 79.964 851.76 80.686C852.123 81.2275 852.485 81.408 852.666 80.686C852.666 80.1445 852.304 79.7835 852.666 78.881C852.666 77.7979 853.391 77.6174 853.391 77.6174V74.5488C853.391 74.5488 852.848 74.7293 852.304 75.2709" fill="white"/>
<path d="M851.034 46.0277C852.121 48.0133 852.665 48.9158 853.209 51.6234C854.659 51.8039 855.746 51.9844 857.558 52.3454V44.9447C857.739 44.9447 856.652 44.4032 855.202 44.4032C853.209 44.4032 852.303 44.2227 852.303 44.2227V44.7642C852.303 44.7642 851.215 45.1252 851.034 45.3057C851.034 45.3057 850.672 45.6667 851.034 46.0277Z" fill="white"/>
<path d="M859.551 54.5135C857.739 53.972 854.477 53.4305 851.94 53.25C851.577 53.25 851.034 52.889 850.853 52.3474C850.853 51.8059 851.577 51.6254 851.577 51.6254C851.577 51.6254 851.577 51.0839 851.034 50.1814C850.853 49.6399 850.309 48.5568 849.765 47.6543C848.134 48.3763 845.778 49.0983 845.597 51.2644C845.416 54.694 847.953 56.6796 851.396 57.2211C853.39 57.5821 855.202 57.7626 857.195 57.9431C857.377 57.9431 858.102 57.9431 858.464 58.1236C858.826 58.1236 859.008 58.6651 859.008 58.8456C859.008 59.2066 859.008 59.3871 858.826 59.5677C858.645 59.7482 858.283 59.9287 858.283 59.9287V63.8998C858.283 63.8998 859.551 63.8998 860.82 62.9973C862.089 62.2752 862.813 61.3727 863.176 60.1092C863.538 58.6651 863.176 57.5821 862.27 56.3186C861.545 55.416 860.458 54.694 859.37 54.333" fill="white"/>
<path d="M857.199 65.8854V59.2067C855.931 59.2067 855.387 59.0262 853.756 58.8457L854.118 64.4414L855.749 65.1634L857.38 66.0659L857.199 65.8854Z" fill="white"/>
<path d="M858.467 67.8695C856.654 66.7864 854.298 65.8839 852.849 65.1619C852.849 65.1619 852.124 64.8009 852.305 64.2594C852.305 63.8984 852.667 63.8984 852.667 63.8984V60.4688C852.486 60.4688 851.58 60.6493 850.855 61.1908C850.312 61.5518 849.405 62.0933 849.043 62.9958C848.137 65.3424 849.043 67.5085 851.399 68.5915C852.486 69.133 853.936 69.494 855.023 69.855C856.111 70.2161 858.104 71.6601 858.285 72.2016C858.285 72.5626 858.104 72.9236 858.104 72.9236V75.8117C858.104 75.8117 859.01 75.6312 859.916 74.9092C860.641 74.1872 861.366 73.4651 861.366 72.0211C861.366 70.5771 860.641 69.494 858.467 68.2305" fill="white"/>
<path d="M855.567 71.2982C855.023 70.9372 853.936 70.5762 853.936 70.5762C853.936 70.5762 854.117 77.7964 854.298 81.587C854.298 82.4895 854.66 82.67 855.567 82.67C856.473 82.67 856.835 82.309 856.835 81.7675C856.835 80.504 857.016 75.2693 857.016 72.5617C857.016 72.3812 857.016 72.2007 857.016 72.2007C856.473 71.6592 855.929 71.2982 855.748 71.2982" fill="white"/>
<path d="M863.718 26.5351C862.087 27.2571 861 28.7011 859.188 29.6037C859.007 29.6037 858.644 29.6037 858.644 29.6037C858.463 28.7011 858.825 27.0766 858.644 25.8131C858.644 25.2715 858.644 25.2715 858.1 24.9105C856.288 24.5495 854.838 23.8275 853.57 23.1055C853.207 23.1055 852.301 23.1055 852.12 23.4665C851.758 24.008 852.12 25.2715 852.12 25.2715C852.12 25.2715 853.932 25.9936 854.476 26.7156C855.02 27.0766 855.382 27.7986 855.563 28.1596C855.745 28.5206 856.107 28.7011 856.288 28.8816C856.651 29.2426 856.832 29.7842 856.651 29.9647C856.651 30.1452 855.926 30.3257 855.382 30.5062C854.114 30.5062 853.207 30.5062 853.207 30.5062C853.207 30.5062 855.926 30.8672 857.013 31.0477C857.557 31.0477 857.919 31.4087 858.1 31.5892C858.1 31.5892 858.463 32.4917 858.463 32.6723C856.651 31.9502 855.02 31.2282 853.389 31.0477C853.389 31.0477 854.295 31.4087 854.476 31.5892C854.838 31.7697 854.838 32.1307 854.838 32.3112C854.657 33.7553 852.301 33.7553 852.301 33.7553V35.7408C854.295 36.1019 856.469 36.1019 858.825 36.6434C858.825 36.6434 859.188 35.9214 859.369 35.7408C859.913 34.6578 860.819 34.2968 861.725 33.3943C862.994 32.1307 864.443 31.0477 865.531 30.1452C866.074 29.7842 866.256 29.7842 866.437 28.8816C866.981 27.2571 864.806 26.1741 863.9 26.5351" fill="white"/>
<path d="M862.093 39.169C857.925 37.0029 853.394 37.7249 849.226 36.4614C847.957 36.1004 846.507 35.5589 846.326 34.1148C846.145 33.2123 846.145 32.3098 846.689 31.9488C847.595 31.4073 848.32 32.3098 849.951 32.6708C850.857 32.6708 851.944 32.6708 852.669 32.6708C853.032 32.6708 853.394 32.4903 853.575 32.1293C853.575 31.7683 853.032 31.7683 852.85 31.5878C852.307 31.4073 851.944 31.4073 851.401 31.2268C850.494 30.8657 849.588 30.3242 848.682 29.7827C849.407 29.7827 850.857 29.6022 851.582 29.7827C852.307 29.7827 854.119 29.7827 854.844 29.7827C854.844 29.7827 855.206 29.7827 855.025 29.4217C854.844 29.0607 854.481 28.8802 854.119 28.5192C853.575 27.7971 853.032 26.8946 852.125 26.5336C849.407 25.4506 846.507 25.2701 843.789 26.5336C840.165 28.3387 838.534 32.8513 840.346 36.6419C841.796 39.7105 844.514 41.1545 847.776 42.0571C849.407 42.4181 850.857 42.5986 852.488 42.9596C854.481 43.1401 856.294 43.3206 858.287 43.6816C858.65 43.6816 859.375 44.0426 859.556 44.4036C859.918 45.1257 859.556 46.0282 858.831 46.3892C858.831 48.0138 858.65 51.6239 858.65 51.6239C858.65 51.6239 866.986 50.7213 865.536 43.5011C865.174 41.6961 863.361 40.0715 861.73 39.169M852.669 27.6166H852.125C851.763 27.7971 851.582 28.1582 851.219 28.1582C850.494 28.1582 850.494 27.6166 850.132 27.2556C849.77 27.0751 849.407 27.2556 849.226 26.8946C850.313 26.8946 851.944 26.8946 852.85 27.7971" fill="white"/>
<path d="M67.5971 31.0457C80.1017 31.0457 85.3572 31.7677 86.9883 32.8508C87.5319 32.3093 88.6193 31.0457 88.6193 28.6991C88.6193 23.1035 81.914 17.5078 66.8722 17.5078C45.4876 17.5078 23.5593 24.367 6.52412 24.9085C5.43676 29.2407 6.70534 34.8363 15.9478 34.8363C25.1904 34.8363 23.3781 34.4753 27.7275 34.1143C5.98044 66.0638 0 79.9627 0 90.432C0 100.901 7.79269 96.3887 9.42372 91.876C13.0482 82.1287 18.8475 72.923 24.8279 64.2587C37.1512 64.2587 53.0991 62.9952 61.4355 61.9121C69.7718 60.8291 71.9465 58.1215 72.4902 55.775C73.2151 50.9013 70.1343 49.4573 64.6975 49.4573C59.2608 49.4573 44.5815 50.7208 33.8892 51.9843C39.6884 44.0421 44.7627 37.1829 46.575 31.9482C53.6428 31.2262 60.8918 30.6847 67.7784 30.6847" fill="#4088BD"/>
<path d="M124.319 6.31609C121.239 4.15002 117.433 4.87205 115.258 7.76013C85.7184 45.4858 74.4824 69.132 74.4824 81.9479C74.4824 94.7637 78.6506 92.9587 84.6311 92.9587C90.6115 92.9587 99.6728 88.085 117.07 71.659C113.99 81.4063 115.802 93.6807 129.031 93.6807C142.261 93.6807 157.121 76.1717 162.014 62.2728C168.72 60.4677 176.875 56.6771 186.299 51.984C181.043 62.2728 173.432 77.2547 169.445 83.7529C167.089 87.9045 169.988 93.5002 174.881 93.5002C179.774 93.5002 179.05 92.4172 180.681 90.2511C191.01 75.2691 199.166 66.6049 214.751 56.4966C213.12 60.2872 213.301 65.3414 217.107 66.7854C220.55 67.8684 224.356 66.6049 225.443 63.5363L232.692 45.1248C233.961 42.2367 232.511 39.5291 230.518 38.085C228.343 36.4605 225.625 35.919 223.087 37.5435C216.563 41.3341 202.246 55.4136 192.823 64.2583L203.877 45.6663C205.327 43.3197 204.602 39.5291 202.428 37.724C200.072 35.919 196.991 35.919 194.816 37.002C183.58 44.2222 173.613 49.8179 162.558 53.6085C161.833 51.2619 159.658 48.9154 155.853 48.9154C149.329 48.9154 143.348 53.789 143.348 58.4822C143.348 63.1753 147.698 63.8973 151.503 63.7168C146.61 73.6446 136.824 82.6699 131.75 82.6699C126.675 82.6699 128.85 81.4063 128.85 78.5182C128.85 59.7457 145.16 43.8612 156.94 46.9298C161.289 47.4713 161.289 45.3053 161.289 44.0417C161.289 41.5146 157.484 36.4605 150.778 36.4605C144.073 36.4605 135.374 40.2511 125.769 51.623C101.304 77.4352 90.7927 81.5869 88.9805 81.5869C87.1682 81.5869 87.7119 81.0453 87.7119 80.1428C87.7119 72.0201 98.223 52.345 125.95 14.7998C128.125 11.9118 127.4 7.76013 124.319 5.95508" fill="#4088BD"/>
<path d="M271.475 16.2467C266.219 16.2467 260.42 22.3838 260.42 29.0625C260.42 35.7412 261.688 32.8532 265.313 32.8532C270.569 32.8532 277.636 27.438 277.636 21.3008C277.636 15.1636 275.28 16.0661 271.656 16.0661" fill="#4088BD"/>
<path d="M410.84 66.6065C396.342 79.9639 389.455 81.769 384.562 81.769C379.669 81.769 382.931 81.2275 382.931 80.1444C382.931 75.9928 385.287 70.0361 390.905 62.2744C393.08 58.8448 392.898 55.0542 389.636 52.8881C386.012 50.5416 381.662 51.9856 379.125 55.4152C364.627 74.9098 354.479 81.9495 349.586 81.9495C344.692 81.9495 347.954 81.2275 347.954 80.1444C347.954 68.2311 373.145 45.6679 390.724 48.7365C393.08 49.278 394.529 47.834 394.529 46.3899C394.529 43.8629 389.455 38.2672 380.575 38.2672C371.695 38.2672 357.922 45.1264 348.861 53.9712C325.12 78.8809 315.153 81.769 313.522 81.769C311.891 81.769 312.253 81.2275 312.253 80.325C312.253 72.2022 322.402 56.6787 353.029 15.8845C355.385 12.8159 354.479 8.84481 351.035 6.67874C348.136 4.87369 344.33 5.59571 342.155 8.30329L317.327 41.3358C314.609 40.0722 311.891 38.9892 306.454 38.9892C296.668 38.9892 286.338 45.3069 277.82 53.4296C252.63 78.3394 241.394 81.2275 239.944 81.2275C238.494 81.2275 238.675 80.686 238.675 80.1444C238.675 74.9098 245.2 64.4405 259.335 45.6679C261.51 42.7798 260.604 38.4477 257.704 36.8231C253.898 34.4766 250.274 35.7401 248.28 38.2672C231.245 59.3863 224.902 73.6463 224.902 81.5885C224.902 89.5307 228.708 92.5993 235.051 92.5993C241.394 92.5993 249.73 88.0867 263.685 75.9928C261.691 84.4766 263.141 93.8629 273.29 93.8629C283.438 93.8629 288.694 88.9892 299.205 79.4224C297.936 87.5452 301.198 92.7798 308.629 92.7798C316.059 92.7798 320.952 89.3502 334 77.6174C332.55 85.3791 334 94.0434 344.149 94.0434C354.297 94.0434 359.009 89.5307 369.52 79.7834C368.795 87.5452 372.42 92.9603 380.394 92.9603C388.368 92.9603 398.879 87.1842 405.765 81.047C411.746 75.6318 414.827 68.4116 410.296 66.787M278.726 82.13C278.001 82.13 277.277 81.408 277.277 79.9639C277.277 69.8556 297.936 48.3755 312.797 49.0975C297.211 73.2852 283.982 82.13 278.726 82.13Z" fill="#4088BD"/>
<path d="M523.923 30.866C523.923 22.3822 512.143 17.3281 498.189 17.5086C479.16 17.6891 459.769 22.9237 453.97 24.5483C451.251 25.2703 450.164 27.0754 450.526 29.2414C451.07 31.588 453.245 32.671 454.876 32.671C457.232 32.671 462.487 30.144 473.905 28.5194C467.743 38.8082 449.62 67.3281 440.559 81.4075H438.203C434.76 81.4075 432.223 83.9346 432.223 87.5447C432.223 91.1548 436.753 93.3209 444.727 93.3209C489.671 93.3209 507.975 83.7541 507.975 69.4941C507.975 55.2342 493.477 52.8876 493.477 50.7216C493.477 48.5555 523.923 43.6819 523.923 30.866ZM494.564 73.1042C494.564 83.9346 467.38 83.9346 455.238 82.671C465.387 66.9671 485.322 36.1006 490.577 27.4364H496.014C501.813 27.4364 509.425 29.0609 509.425 32.8515C509.425 42.2378 478.979 43.8624 478.979 53.6097C478.979 63.357 494.564 67.5086 494.564 73.1042Z" fill="#4088BD"/>
<path d="M563.248 6.31789C560.167 3.97132 555.998 5.23486 553.824 7.94244C523.74 45.8486 512.686 70.0363 512.686 83.2132C512.686 96.3901 516.491 94.224 522.472 94.224C528.452 94.224 534.795 88.6284 552.736 71.4803C548.749 81.9497 548.387 94.224 561.073 94.224C573.759 94.224 577.927 88.0868 589.888 75.4515C587.169 85.0183 591.337 95.3071 600.942 95.3071C610.547 95.3071 605.654 94.0435 605.654 92.9605C605.654 91.8775 602.573 88.8089 602.573 80.8666C602.573 72.9244 609.098 60.289 618.702 48.0146C620.877 45.1266 620.334 41.1554 617.796 38.8089C615.078 36.6428 610.547 36.6428 608.373 39.5309C584.632 67.8702 572.49 81.9497 566.147 81.9497C559.804 81.9497 564.697 81.2276 564.697 80.1446C564.697 75.4515 570.859 62.6356 582.457 47.6536C584.632 44.7655 584.088 41.1554 581.732 38.9894C578.833 36.4623 574.846 36.6428 572.309 38.9894C561.979 50.7222 556.18 57.0399 551.468 61.7331C530.627 82.1302 528.633 83.2132 527.184 83.2132C525.734 83.2132 525.915 82.6717 525.915 81.7692C525.915 73.2854 535.701 53.9713 564.516 15.5237C566.691 12.4551 565.785 8.30345 562.885 6.31789" fill="#4088BD"/>
<path d="M632.656 83.3923C627.4 83.3923 626.676 78.5187 628.125 74.5476C649.51 67.5079 663.827 57.0386 663.827 47.6523C663.827 38.266 659.296 36.4609 649.872 36.4609C629.756 36.4609 613.809 62.6342 613.809 79.6017C613.809 96.5692 617.796 94.7642 627.582 94.7642C637.368 94.7642 645.523 91.5151 655.672 83.5729C663.102 77.7967 665.095 71.6595 662.196 69.3129C648.604 81.5873 637.187 83.5729 632.656 83.5729M648.966 48.3743C650.597 48.3743 651.866 49.2768 651.866 50.5404C651.866 54.692 642.08 60.6487 630.663 65.3418C634.106 57.5801 640.992 48.5548 648.966 48.5548" fill="#4088BD"/>
</svg>
