<svg width="636" height="100" viewBox="0 0 636 100" fill="none" xmlns="http://www.w3.org/2000/svg">
<path d="M182.099 75.1071C178.709 76.802 175.214 78.0731 171.612 78.9206C168.01 79.768 164.197 80.0858 160.489 80.0858C156.464 80.0858 152.65 79.4503 149.366 78.1791C145.976 77.0138 143.01 75.107 140.468 72.7765C138.031 70.3401 136.019 67.5859 134.642 64.196C133.265 60.8062 132.629 57.0986 132.629 52.8613C132.629 48.624 133.265 44.9164 134.642 41.5265C136.019 38.1367 138.031 35.3825 140.468 32.946C142.904 30.5096 145.87 28.8147 149.366 27.5435C152.756 26.3782 156.464 25.6367 160.489 25.6367C164.62 25.6367 168.434 26.1664 171.93 27.1198C175.426 28.0732 178.498 29.7681 181.04 32.2045L172.989 40.8909C171.4 39.302 169.599 38.0308 167.798 37.2893C165.998 36.5477 163.349 36.124 160.595 36.124C158.159 36.124 155.934 36.5477 154.027 37.2893C152.014 38.1367 150.426 39.302 148.942 40.785C147.459 42.2681 146.4 43.963 145.765 45.9757C144.917 47.9884 144.705 50.3189 144.705 52.5435C144.705 54.9799 145.129 57.2045 145.765 59.2172C146.612 61.2299 147.671 63.0308 148.942 64.4079C150.426 65.891 152.014 67.0562 154.027 67.9037C156.04 68.7511 158.159 69.0689 160.595 69.0689C163.031 69.0689 165.15 68.7511 167.057 68.2215C168.752 67.6918 170.235 67.1621 171.4 66.5265V58.1579H162.184V47.6706H182.311V75.1071H182.099Z" fill="#666766"/>
<path d="M246.719 58.9003C246.719 61.9723 246.295 64.8325 245.342 67.3749C244.388 69.9172 243.011 72.2477 241.21 74.0486C239.303 75.9554 237.079 77.4384 234.325 78.4977C231.676 79.5571 228.392 80.0867 224.897 80.0867C221.295 80.0867 218.223 79.5571 215.363 78.4977C212.715 77.4384 210.384 75.9554 208.477 74.0486C206.57 72.1418 205.299 69.9172 204.346 67.3749C203.392 64.8325 202.969 61.9723 202.969 58.9003V27.2266H214.409V58.4766C214.409 60.0655 214.727 61.5486 215.257 62.9257C215.787 64.3028 216.422 65.4681 217.376 66.4215C218.329 67.3749 219.388 68.1164 220.765 68.752C222.142 69.2817 223.414 69.5994 224.897 69.5994C226.38 69.5994 227.863 69.2817 229.028 68.752C230.193 68.2223 231.464 67.3749 232.206 66.4215C233.159 65.4681 233.795 64.3028 234.325 62.9257C234.854 61.5486 235.172 60.0655 235.172 58.4766V27.2266H246.613V58.9003H246.719Z" fill="#666766"/>
<path d="M268.117 27.0137H279.558V78.7086H268.117V27.0137Z" fill="#666766"/>
<path d="M300.742 27.0137H317.797C321.929 27.0137 325.848 27.4374 329.662 28.3908C333.475 29.3442 336.653 30.8272 339.513 32.8399C342.374 34.8527 344.492 37.501 346.081 40.8908C347.67 44.2806 348.518 48.306 348.518 52.9671C348.518 57.0984 347.67 60.912 346.081 63.984C344.492 67.162 342.268 69.9162 339.619 72.0348C336.971 74.1535 333.793 75.8484 330.403 77.0137C326.907 78.073 323.306 78.6027 319.386 78.6027H300.742V27.0137ZM312.183 68.2213H318.115C320.763 68.2213 323.2 67.9035 325.53 67.3738C327.861 66.8442 329.662 65.8908 331.463 64.7255C333.052 63.5603 334.429 61.8654 335.382 59.8526C336.335 57.8399 336.865 55.4035 336.865 52.4374C336.865 49.895 336.335 47.7764 335.382 45.8696C334.429 43.9628 333.052 42.4798 331.463 41.2086C329.874 40.0434 327.967 39.09 325.848 38.5603C323.729 37.9247 321.399 37.6069 318.963 37.6069H312.289L312.183 68.2213Z" fill="#666766"/>
<path d="M367.48 27.0137H402.544V37.501H378.815V47.1408H401.273V57.6281H378.815V68.1154H403.815V78.6027H367.586V27.0137H367.48Z" fill="#666766"/>
<path d="M418.648 27.0137H431.042L439.199 60.1705H439.305L450.004 27.0137H460.598L471.297 61.0179H471.403L480.089 27.0137H491.636L476.593 78.7086H466.424L454.983 43.0094H454.877L443.437 78.7086H433.585L418.648 27.0137Z" fill="#666766"/>
<path d="M507.844 27.0137H519.284V78.7086H507.844V27.0137Z" fill="#666766"/>
<path d="M540.465 27.0137H560.486C563.134 27.0137 565.571 27.3315 568.007 27.8611C570.444 28.3908 572.456 29.2383 574.151 30.4035C575.846 31.5688 577.329 33.2637 578.494 35.2764C579.66 37.2891 580.083 39.8315 580.083 42.7976C580.083 46.3993 579.13 49.4713 577.223 52.0137C575.317 54.556 572.562 56.145 568.855 56.8866L581.99 78.6027H568.325L557.626 57.9459H552.011V78.6027H540.571L540.465 27.0137ZM551.906 48.412H558.579C559.639 48.412 560.698 48.412 561.757 48.306C562.922 48.2001 563.876 47.9882 564.829 47.6704C565.783 47.3526 566.524 46.7171 567.16 45.9756C567.795 45.1281 568.113 44.0688 568.113 42.7976C568.113 41.4205 567.795 40.3611 567.266 39.7255C566.736 38.8781 566.1 38.3484 565.253 38.0306C564.405 37.7128 563.558 37.395 562.393 37.1832C561.333 37.0772 560.274 36.8654 559.321 36.8654H551.906V48.5179V48.412Z" fill="#666766"/>
<path d="M599.156 27.0137H634.22V37.501H610.597V47.1408H633.055V57.6281H610.597V68.1154H635.597V78.6027H599.156V27.0137Z" fill="#666766"/>
<path d="M99.894 20.0212V0H20.0212H0V20.0212V79.9788V100H20.0212H59.9576V79.9788H20.0212V20.0212H99.894Z" fill="#00739D"/>
<path d="M99.8951 40.043V59.9582V100.001H79.8739V59.9582H39.9375V40.043H99.8951Z" fill="#00739D"/>
</svg>
